<?xml version="1.0" encoding="UTF-8"?>
<svg id="logo" data-name="Layer 1" xmlns="http://www.w3.org/2000/svg" viewBox="0 0 1080 1080">
  <path fill="currentColor" d="M740.59,939.99c-59.17,29.77-122.74,45.46-188.66,47.54-43.62,1.38-86.56-4.47-128.52-15.49l-23.36-7.02c-116.18-38.07-212.29-123.33-264.35-234.14-23.46-49.94-38.27-103.28-41.44-158.33l-1.1-19.17c-.56-9.65-.38-18.95.03-28.78,2.45-58.95,14.57-113.11,38.82-167.07,9.84-21.9,20.48-42.43,33.83-62.36s26.14-37.25,41.78-54.35c13.1-14.33,26.26-27.36,41.01-40.09,72.28-62.38,163.11-99.91,258.35-106.91,14.79-1.09,28.28-1.95,42.78-1.36,20.42.82,39.84,2.41,60.38,5.62,84.88,13.27,163.91,51.13,227.81,108.23,41.71,37.27,74.39,80.13,100.16,129.84,16.09,31.03,27.48,63.29,36.13,97.15,16.86,66.02,17.18,140.72,1.51,207.14-10.79,45.74-27.62,88.95-51.82,129.09-40.13,66.56-99,125.52-167.28,161.91l-16.05,8.55ZM590.23,958.88l6.98-.85c87.42-11.85,169.16-50.26,232.5-111.45l5.16-4.98c48.19-46.56,83.5-103.96,104.95-167.69,29.34-87.17,29.02-186.12-1.78-272.73-9.4-26.43-20.5-51.2-34.8-75.25-19.29-32.44-41.93-61.65-68.9-87.94-1.13-2.51-2.44-3.92-5.04-4.86-75.52-71.04-174.08-112.05-277.9-114.73l-22.59-.03c-125.74,3.28-244.13,63.16-321.26,162.45-54.38,70.01-83.96,151.93-88.64,240.58l-.84,8.99c-.75,8.05-.06,15.23.55,23.14l2.56,33.45c5.54,44.99,16.85,88.66,36.13,129.64,9.68,20.58,20.01,39.62,32.7,58.43,19.71,29.23,42.16,54.97,68.02,78.66l9.72,8.33c88.88,76.16,205.96,111.14,322.5,96.86Z"/>
  <polygon fill="currentColor" points="514.57 440.92 495.62 453 483.81 460.53 324.91 561.84 297.1 518.17 335.92 493.71 540.31 363.29 783.58 518.15 755.77 561.87 540.48 424.64 529.65 431.27 514.57 440.92"/>
  <polygon fill="currentColor" points="540.33 552.05 336.75 681.78 324.95 689.29 297.1 645.91 540.35 490.8 783.59 645.89 755.82 689.44 540.33 552.05"/>
  <polygon fill="currentColor" points="755.86 434.39 540.42 296.81 324.86 434.32 297.22 390.5 540.29 235.82 783.55 390.64 755.86 434.39"/>
  <path fill="currentColor" d="M550.17,825.85l-10.58-5.8-57.82,32.86,15.05-61.26-45.68-39.03c1.39-1.21,3.41-1.7,5.38-1.84l17.82-1.31,38.09-2.87,27.27-57.16,27.38,57.24,36.11,2.78,25.65,2.11-26.31,23.08-20.13,17.18,15.16,60.9-47.4-26.88Z"/>
</svg>